<?xml version="1.0" encoding="UTF-8"?>
<svg id="Layer_1" xmlns="http://www.w3.org/2000/svg" version="1.1" xmlns:xlink="http://www.w3.org/1999/xlink" viewBox="0 0 85 85">
  <!-- Generator: Adobe Illustrator 29.3.1, SVG Export Plug-In . SVG Version: 2.1.0 Build 151)  -->
  <defs>
    <style>
      .st0 {
        fill: #192836;
      }

      .st1 {
        fill: #f9b000;
      }
    </style>
  </defs>
  <path class="st1" d="M38.1,20.8l-8.5-8.5,5.7-5.7c3.2-3.2,8.3-3.2,11.5,0l2.8,2.8-11.5,11.5ZM33.2,12.3l4.8,4.8,7.8-7.8-.9-.9c-2.2-2.2-5.7-2.2-7.8,0l-3.9,3.9Z"/>
  <path class="st0" d="M56.4,51.3l-10.2-10.2,7.5-7.5c5.8-5.8,5.8-15.3,0-21.1l-.9-.9-18.9,18.9-5.2,5.2c-2.8,2.8-4.4,6.6-4.4,10.6s1.6,7.7,4.4,10.6l.9.9,5.2-5.2,9.3,9.3-13.6,13.6.9.9c2.9,2.9,6.7,4.4,10.6,4.4s7.7-1.5,10.6-4.4l3.9-3.9c5.8-5.8,5.8-15.3,0-21.1M51.8,31.9l-7.5,7.5-7.9-7.8,16.2-16.2c3.9,4.8,3.6,12-.9,16.5M54.6,70.6l-3.9,3.9c-4.5,4.5-11.7,4.8-16.5.9l13.5-13.5-12.9-12.9-5.1,5.1c-1.8-2.2-2.8-4.9-2.8-7.8s1.3-6.4,3.6-8.7l4.2-4.2,9.9,9.8h0l10,10,.2.2c4.6,4.8,4.6,12.5-.2,17.3"/>
</svg>